name Walk8.mot
datacolumns 19
datarows 22
range 2.24000000 2.34500000
endheader

                time	   L_ground_force_vx	   L_ground_force_vy	   L_ground_force_vz	   L_ground_force_px	   L_ground_force_py	   L_ground_force_pz	   R_ground_force_vx	   R_ground_force_vy	   R_ground_force_vz	   R_ground_force_px	   R_ground_force_py	   R_ground_force_pz	   L_ground_torque_x	   L_ground_torque_y	   L_ground_torque_z	   R_ground_torque_x	   R_ground_torque_y	   R_ground_torque_z	
          2.24000000	          0.00000000	          0.00000000	         -0.00000000	          0.00000000	          0.00000000	          0.00000000	          0.11170448	          1.47048929	          0.16690046	          0.06711573	          0.00000000	          0.01392909	          0.00000000	          0.00000000	          0.00000000	          0.00000000	          0.01405266	          0.00000000	
          2.24500000	          0.00000000	          0.00000000	         -0.00000000	         -0.00000000	          0.00000000	         -0.00000000	         -0.14673242	         -1.00927401	         -0.07462173	         -0.00943376	          0.00000000	         -0.00214126	          0.00000000	          0.00000000	          0.00000000	          0.00000000	         -0.00201778	          0.00000000	
          2.25000000	          0.00000000	          0.00000000	         -0.00000000	         -0.00000000	          0.00000000	         -0.00000000	         -0.05343969	         -0.44376793	         -0.03912353	         -0.00993936	          0.00000000	         -0.00211444	          0.00000000	          0.00000000	          0.00000000	          0.00000000	         -0.00209308	          0.00000000	
          2.25500000	         -0.00000000	         -0.00000000	          0.00000000	          0.00000000	          0.00000000	          0.00000000	          0.00087427	         -0.01544137	         -0.00291937	         -0.00177514	          0.00000000	         -0.00036305	          0.00000000	         -0.00000000	          0.00000000	          0.00000000	         -0.00037043	          0.00000000	
          2.26000000	         -0.00000000	         -0.00000000	          0.00000000	          0.00000000	          0.00000000	          0.00000000	          0.00604507	          0.04380634	          0.00342334	          0.00057869	          0.00000000	          0.00012721	          0.00000000	         -0.00000000	          0.00000000	          0.00000000	          0.00012282	          0.00000000	
          2.26500000	         -0.00000000	         -0.00000000	          0.00000000	          0.00000000	          0.00000000	          0.00000000	          0.00160736	          0.01401100	          0.00128077	          0.00035558	          0.00000000	          0.00007522	          0.00000000	          0.00000000	          0.00000000	          0.00000000	          0.00007478	          0.00000000	
          2.27000000	          0.00000000	          0.00000000	         -0.00000000	         -0.00000000	          0.00000000	         -0.00000000	         -0.00020335	         -0.00080819	         -0.00001083	          0.00003733	          0.00000000	          0.00000738	          0.00000000	          0.00000000	          0.00000000	          0.00000000	          0.00000773	          0.00000000	
          2.27500000	          0.00000000	          0.00000000	         -0.00000000	         -0.00000000	          0.00000000	         -0.00000000	         -0.00023168	         -0.00174795	         -0.00014203	         -0.00002807	          0.00000000	         -0.00000608	          0.00000000	          0.00000000	          0.00000000	          0.00000000	         -0.00000594	          0.00000000	
          2.28000000	         -0.00000000	         -0.00000000	         -0.00000000	         -0.00000000	          0.00000000	         -0.00000000	         -0.00004317	         -0.00040451	         -0.00003882	         -0.00001196	          0.00000000	         -0.00000251	          0.00000000	         -0.00000000	          0.00000000	          0.00000000	         -0.00000251	          0.00000000	
          2.28500000	         -0.00000000	         -0.00000000	          0.00000000	          0.00000000	          0.00000000	          0.00000000	          0.00001298	          0.00007577	          0.00000448	         -0.00000032	          0.00000000	         -0.00000005	          0.00000000	         -0.00000000	          0.00000000	          0.00000000	         -0.00000006	          0.00000000	
          2.29000000	         -0.00000000	         -0.00000000	          0.00000000	          0.00000000	          0.00000000	          0.00000000	          0.00000834	          0.00006523	          0.00000547	          0.00000121	          0.00000000	          0.00000026	          0.00000000	         -0.00000000	          0.00000000	          0.00000000	          0.00000025	          0.00000000	
          2.29500000	          0.00000000	          0.00000000	         -0.00000000	          0.00000000	          0.00000000	          0.00000000	          0.00000094	          0.00001015	          0.00000106	          0.00000037	          0.00000000	          0.00000008	          0.00000000	          0.00000000	          0.00000000	          0.00000000	          0.00000008	          0.00000000	
          2.30000000	          0.00000000	          0.00000000	         -0.00000000	         -0.00000000	          0.00000000	         -0.00000000	         -0.00000064	         -0.00000422	         -0.00000030	         -0.00000003	          0.00000000	         -0.00000001	          0.00000000	          0.00000000	          0.00000000	          0.00000000	         -0.00000001	          0.00000000	
          2.30500000	          0.00000000	          0.00000000	         -0.00000000	         -0.00000000	          0.00000000	         -0.00000000	         -0.00000028	         -0.00000229	         -0.00000020	         -0.00000005	          0.00000000	         -0.00000001	          0.00000000	          0.00000000	          0.00000000	          0.00000000	         -0.00000001	          0.00000000	
          2.31000000	         -0.00000000	         -0.00000000	          0.00000000	          0.00000000	          0.00000000	          0.00000000	         -0.00000001	         -0.00000019	         -0.00000002	         -0.00000001	          0.00000000	         -0.00000000	          0.00000000	         -0.00000000	          0.00000000	          0.00000000	         -0.00000000	          0.00000000	
          2.31500000	         -0.00000000	         -0.00000000	          0.00000000	          0.00000000	          0.00000000	          0.00000000	          0.00000003	          0.00000020	          0.00000001	          0.00000000	          0.00000000	          0.00000000	          0.00000000	         -0.00000000	          0.00000000	          0.00000000	          0.00000000	          0.00000000	
          2.32000000	         -0.00000000	         -0.00000000	          0.00000000	          0.00000000	          0.00000000	          0.00000000	          0.00000001	          0.00000008	          0.00000001	          0.00000000	          0.00000000	          0.00000000	          0.00000000	         -0.00000000	          0.00000000	          0.00000000	          0.00000000	          0.00000000	
          2.32500000	          0.00000000	          0.00000000	         -0.00000000	         -0.00000000	          0.00000000	         -0.00000000	         -0.00000000	         -0.00000000	          0.00000000	          0.00000000	          0.00000000	          0.00000000	          0.00000000	          0.00000000	          0.00000000	          0.00000000	          0.00000000	          0.00000000	
          2.33000000	          0.00000000	          0.00000000	         -0.00000000	         -0.00000000	          0.00000000	         -0.00000000	         -0.00000000	         -0.00000001	         -0.00000000	         -0.00000000	          0.00000000	         -0.00000000	          0.00000000	          0.00000000	          0.00000000	          0.00000000	         -0.00000000	          0.00000000	
          2.33500000	         -0.00000000	          0.00000000	         -0.00000000	         -0.00000000	          0.00000000	         -0.00000000	         -0.00000000	         -0.00000000	         -0.00000000	         -0.00000000	          0.00000000	         -0.00000000	          0.00000000	         -0.00000000	          0.00000000	          0.00000000	         -0.00000000	          0.00000000	
          2.34000000	         -0.00000000	         -0.00000000	          0.00000000	          0.00000000	          0.00000000	          0.00000000	          0.00000000	          0.00000000	          0.00000000	         -0.00000000	          0.00000000	         -0.00000000	          0.00000000	         -0.00000000	          0.00000000	          0.00000000	         -0.00000000	          0.00000000	
          2.34500000	         -0.00000000	         -0.00000000	          0.00000000	          0.00000000	          0.00000000	          0.00000000	          0.00000000	          0.00000000	          0.00000000	          0.00000000	          0.00000000	          0.00000000	          0.00000000	         -0.00000000	          0.00000000	          0.00000000	          0.00000000	          0.00000000	
